HIERARCHY
ROOT hips
{
  OFFSET 0 10.6860622 2.3727825e-15
  CHANNELS 6 Xposition Yposition Zposition Yrotation Xrotation Zrotation
  JOINT leftUpperLeg
  {
    OFFSET 0.6642549969 -0.9402397400000004 0
    CHANNELS 3 Yrotation Xrotation Zrotation
    JOINT leftLowerLeg
    {
      OFFSET 0 -3.997221335632195 0
      CHANNELS 3 Yrotation Xrotation Zrotation
      JOINT leftFoot
      {
        OFFSET -0.13777839790000004 -4.6145792000000005 -0.22186036399999998
        CHANNELS 3 Yrotation Xrotation Zrotation
        JOINT leftToes
        {
          OFFSET -0.03777410834999995 -0.9130806927000008 0.85230013
          CHANNELS 3 Yrotation Xrotation Zrotation
          End Site
          {
            OFFSET -0.03777410834999995 -0.9130806927000008 0.85230013
          }
        }
      }
    }
  }
  JOINT rightUpperLeg
  {
    OFFSET -0.6642778626 -0.9402397400000004 0
    CHANNELS 3 Yrotation Xrotation Zrotation
    JOINT rightLowerLeg
    {
      OFFSET 0 -3.997221452859387 0
      CHANNELS 3 Yrotation Xrotation Zrotation
      JOINT rightFoot
      {
        OFFSET 0.1377926176 -4.6145792000000005 -0.22185782299999995
        CHANNELS 3 Yrotation Xrotation Zrotation
        JOINT rightToes
        {
          OFFSET 0.037780746850000047 -0.9130806927000008 0.85230167
          CHANNELS 3 Yrotation Xrotation Zrotation
          End Site
          {
            OFFSET 0.037780746850000047 -0.9130806927000008 0.85230167
          }
        }
      }
    }
  }
  JOINT spine
  {
    OFFSET 0 0.13988381660000015 0
    CHANNELS 3 Yrotation Xrotation Zrotation
    JOINT chest
    {
      OFFSET 0 0.6191039003973773 0
      CHANNELS 3 Yrotation Xrotation Zrotation
      JOINT upperChest
      {
        OFFSET 0 0.9855186130586943 0
        CHANNELS 3 Yrotation Xrotation Zrotation
        JOINT leftShoulder
        {
          OFFSET 0.1807663869 1.5087829790000005 0
          CHANNELS 3 Yrotation Xrotation Zrotation
          JOINT leftUpperArm
          {
            OFFSET 0.5985063006419806 0 0
            CHANNELS 3 Yrotation Xrotation Zrotation
            JOINT leftLowerArm
            {
              OFFSET 2.2993332369501065 0 0
              CHANNELS 3 Yrotation Xrotation Zrotation
              JOINT leftHand
              {
                OFFSET 2.395047042602395 0 0
                CHANNELS 3 Yrotation Xrotation Zrotation
                JOINT leftIndexProximal
                {
                  OFFSET 0.5766295810000004 0.04556643899499946 0.17265095988184
                  CHANNELS 3 Yrotation Xrotation Zrotation
                  JOINT leftIndexIntermediate
                  {
                    OFFSET 0.2957229000000008 -0.019352197700001517 -0.007932640616999987
                    CHANNELS 3 Yrotation Xrotation Zrotation
                    JOINT leftIndexDistal
                    {
                      OFFSET 0.19008243099999922 -0.012484908149998475 -0.002786250786000012
                      CHANNELS 3 Yrotation Xrotation Zrotation
                      End Site
                      {
                        OFFSET 0.19008243099999922 -0.012484908149998475 -0.002786250786000012
                      }
                    }
                  }
                }
                JOINT leftMiddleProximal
                {
                  OFFSET 0.5834975091000001 0.0524350405149987 0.02204081888183999
                  CHANNELS 3 Yrotation Xrotation Zrotation
                  JOINT leftMiddleIntermediate
                  {
                    OFFSET 0.33880573540000003 -0.019871473270000717 -0.00000971183179999946
                    CHANNELS 3 Yrotation Xrotation Zrotation
                    JOINT leftMiddleDistal
                    {
                      OFFSET 0.20676022730000088 -0.012221336379999448 0.0001471936708000235
                      CHANNELS 3 Yrotation Xrotation Zrotation
                      End Site
                      {
                        OFFSET 0.20676022730000088 -0.012221336379999448 0.0001471936708000235
                      }
                    }
                  }
                }
                JOINT leftLittleProximal
                {
                  OFFSET 0.5344154683999995 -0.012880921405001189 -0.24414037221816004
                  CHANNELS 3 Yrotation Xrotation Zrotation
                  JOINT leftLittleIntermediate
                  {
                    OFFSET 0.21758961730000093 -0.011650919939999227 0.011893592810000034
                    CHANNELS 3 Yrotation Xrotation Zrotation
                    JOINT leftLittleDistal
                    {
                      OFFSET 0.1475273964999999 -0.008152365682999818 0.006001092492999946
                      CHANNELS 3 Yrotation Xrotation Zrotation
                      End Site
                      {
                        OFFSET 0.1475273964999999 -0.008152365682999818 0.006001092492999946
                      }
                    }
                  }
                }
                JOINT leftRingProximal
                {
                  OFFSET 0.5799399463000003 0.026911854694997794 -0.12150566991816003
                  CHANNELS 3 Yrotation Xrotation Zrotation
                  JOINT leftRingIntermediate
                  {
                    OFFSET 0.26167887460000006 -0.013480186499999602 0.010996293000000053
                    CHANNELS 3 Yrotation Xrotation Zrotation
                    JOINT leftRingDistal
                    {
                      OFFSET 0.17667108799999987 -0.008990287899999228 0.0055541023999999065
                      CHANNELS 3 Yrotation Xrotation Zrotation
                      End Site
                      {
                        OFFSET 0.17667108799999987 -0.008990287899999228 0.0055541023999999065
                      }
                    }
                  }
                }
                JOINT leftThumbProximal
                {
                  OFFSET 0.11018806699999972 -0.09448718900500053 0.17047963138184
                  CHANNELS 3 Yrotation Xrotation Zrotation
                  JOINT leftThumbIntermediate
                  {
                    OFFSET 0.31062601459999983 -0.08126270900000132 0.15443142000000007
                    CHANNELS 3 Yrotation Xrotation Zrotation
                    JOINT leftThumbDistal
                    {
                      OFFSET 0.21627175790000086 -0.08833193599999878 0.018771167799999988
                      CHANNELS 3 Yrotation Xrotation Zrotation
                      End Site
                      {
                        OFFSET 0.21627175790000086 -0.08833193599999878 0.018771167799999988
                      }
                    }
                  }
                }
              }
            }
          }
        }
        JOINT neck
        {
          OFFSET 0 1.5463305265074576 0
          CHANNELS 3 Yrotation Xrotation Zrotation
          JOINT head
          {
            OFFSET 0 0.8456443600000344 0
            CHANNELS 3 Yrotation Xrotation Zrotation
            JOINT leftEye
            {
              OFFSET 0.30408573140000006 0.5104519199999995 0.1276382305
              CHANNELS 3 Yrotation Xrotation Zrotation
              End Site
              {
                OFFSET 0.30408573140000006 0.5104519199999995 0.1276382305
              }
            }
            JOINT rightEye
            {
              OFFSET -0.30409491089999996 0.5104519199999995 0.1276379445
              CHANNELS 3 Yrotation Xrotation Zrotation
              End Site
              {
                OFFSET -0.30409491089999996 0.5104519199999995 0.1276379445
              }
            }
            JOINT jaw
            {
              OFFSET -3.155239131000001e-7 -0.11984121820000082 0.60178107
              CHANNELS 3 Yrotation Xrotation Zrotation
              End Site
              {
                OFFSET -3.155239131000001e-7 -0.11984121820000082 0.60178107
              }
            }
          }
        }
        JOINT rightShoulder
        {
          OFFSET -0.1807303465 1.5087829790000005 0
          CHANNELS 3 Yrotation Xrotation Zrotation
          JOINT rightUpperArm
          {
            OFFSET -0.5985063796536958 0 0
            CHANNELS 3 Yrotation Xrotation Zrotation
            JOINT rightLowerArm
            {
              OFFSET -2.2993322059002854 0 0
              CHANNELS 3 Yrotation Xrotation Zrotation
              JOINT rightHand
              {
                OFFSET -2.395045314457259 0 0
                CHANNELS 3 Yrotation Xrotation Zrotation
                JOINT rightIndexProximal
                {
                  OFFSET -0.5764487688300002 0.0441371204405987 0.17361932004999997
                  CHANNELS 3 Yrotation Xrotation Zrotation
                  JOINT rightIndexIntermediate
                  {
                    OFFSET -0.29573011380000047 -0.01934826376999843 -0.007698921482999974
                    CHANNELS 3 Yrotation Xrotation Zrotation
                    JOINT rightIndexDistal
                    {
                      OFFSET -0.19008373999999884 -0.012503266380000655 -0.0026365778999999897
                      CHANNELS 3 Yrotation Xrotation Zrotation
                      End Site
                      {
                        OFFSET -0.19008373999999884 -0.012503266380000655 -0.0026365778999999897
                      }
                    }
                  }
                }
                JOINT rightMiddleProximal
                {
                  OFFSET -0.5834852037300005 0.05211639405060153 0.02307162440000001
                  CHANNELS 3 Yrotation Xrotation Zrotation
                  JOINT rightMiddleIntermediate
                  {
                    OFFSET -0.33880114510000003 -0.019952774050000954 0.0002455003561999819
                    CHANNELS 3 Yrotation Xrotation Zrotation
                    JOINT rightMiddleDistal
                    {
                      OFFSET -0.20675694929999955 -0.012273788999999091 0.00030209124000002766
                      CHANNELS 3 Yrotation Xrotation Zrotation
                      End Site
                      {
                        OFFSET -0.20675694929999955 -0.012273788999999091 0.00030209124000002766
                      }
                    }
                  }
                }
                JOINT rightLittleProximal
                {
                  OFFSET -0.5346811737299992 -0.011214256288399227 -0.24363941305000003
                  CHANNELS 3 Yrotation Xrotation Zrotation
                  JOINT rightLittleIntermediate
                  {
                    OFFSET -0.21757715980000092 -0.011771559690000988 0.01201554387
                    CHANNELS 3 Yrotation Xrotation Zrotation
                    JOINT rightLittleDistal
                    {
                      OFFSET -0.1475201849000004 -0.00822055339600003 0.006082065407000015
                      CHANNELS 3 Yrotation Xrotation Zrotation
                      End Site
                      {
                        OFFSET -0.1475201849000004 -0.00822055339600003 0.006082065407000015
                      }
                    }
                  }
                }
                JOINT rightRingProximal
                {
                  OFFSET -0.5800810755299999 0.027657985680600072 -0.12066365025000003
                  CHANNELS 3 Yrotation Xrotation Zrotation
                  JOINT rightRingIntermediate
                  {
                    OFFSET -0.26166445029999974 -0.013623118409999302 0.011164098990000045
                    CHANNELS 3 Yrotation Xrotation Zrotation
                    JOINT rightRingDistal
                    {
                      OFFSET -0.17666387530000027 -0.009072900100000503 0.005668185599999959
                      CHANNELS 3 Yrotation Xrotation Zrotation
                      End Site
                      {
                        OFFSET -0.17666387530000027 -0.009072900100000503 0.005668185599999959
                      }
                    }
                  }
                }
                JOINT rightThumbProximal
                {
                  OFFSET -0.10997596379000074 -0.09577489355940072 0.16989765924999997
                  CHANNELS 3 Yrotation Xrotation Zrotation
                  JOINT rightThumbIntermediate
                  {
                    OFFSET -0.31036620999999986 -0.08229339117999834 0.15440884469999996
                    CHANNELS 3 Yrotation Xrotation Zrotation
                    JOINT rightThumbDistal
                    {
                      OFFSET -0.21631306399999906 -0.08825326400000111 0.018656797720000014
                      CHANNELS 3 Yrotation Xrotation Zrotation
                      End Site
                      {
                        OFFSET -0.21631306399999906 -0.08825326400000111 0.018656797720000014
                      }
                    }
                  }
                }
              }
            }
          }
        }
      }
    }
  }
}
MOTION
Frames: 9
Frame Time: 0.03333333333333333
0 11.682712981546562 0 0 0 0 0 0 -5.826343164929014 -0.3712483961610101 -3.6333298826370974 5.838118207697276 0 0 0 0 0 0 0 0 5.826343164929014 0.3712483961610101 -3.6333298826370974 -5.838118207697276 0 0 0 0 0 0 0 -4.610651315171937 0 0 3.0831277533083026 0 0 0 0 0 1.5275236235667615 0 0 0 0 0 0 0 0 0 0 0 0 0 0 0 0 0 0 0 0 0 0 0 0 0 0 0 0 0 0 0 0 0 0 0 0 0 0 0 0 0 0 0 0 0 0 0 0 0 0 0 0 0 0 0 0 1.5275236235667615 0 0 0 0 0 0 0 0 0 0 0 0 0 0 1.5275236235667615 0 0 0 0 0 0 0 0 0 0 0 0 0 0 0 0 0 0 0 0 0 0 0 0 0 0 0 0 0 0 0 0 0 0 0 0 0 0 0 0 0 0 0 0 0 0 0 0 0 0 0 0 0 0 0
-0.14592165720185823 -10.12643314978695 -5.755323079813846 0.3522651677756811 -88.9849000840806 179.65391814547067 6.6348190267873175 -39.46129036768313 33.57753185054974 -5.6556587744295355 62.034685733579046 7.842660166170762 -19.70774033892527 54.670002655789325 3.5435862540377876 0 0 0 -6.6694124101682695 -39.479455166978475 -33.56305277055893 5.632851217635751 62.033775418388586 -7.896987820214085 19.7338513874152 54.65253186746804 -3.561010892398899 0 0 0 -0.21396846706040382 1.0481442647509145 -0.043805187918652976 -1.1859435422356062 -4.6571872465534465 -0.015395858988266595 0 0 0 16.0235661987482 10.27918618845341 -17.107126330565237 -78.36750428080938 0.3122385741029612 -1.966744884744692 -40.721313516234886 -17.470025045081538 -5.448166748455135 -20.69430015196317 -46.312097239034536 -23.685321465385286 0 0 0 0 0 0 0 0 0 0 0 0 0 0 0 0 0 0 0 0 0 0 0 0 0 0 0 0 0 0 0 0 0 0 0 0 0 0 0 0 0 0 0 0 0 0 45.52594238601336 0 0 -40.0013259831313 0 0 0 0 0 0 0 0 0 0 -15.865767932218883 9.805938358207822 17.169957604849518 78.18778691138294 0.3563760089263235 1.954546755315068 40.624959693326225 -17.498040758905404 5.379149845099237 19.724298453206607 -45.98224443469892 24.879547236838025 0 0 0 0 0 0 0 0 0 0 0 0 0 0 0 0 0 0 0 0 0 0 0 0 0 0 0 0 0 0 0 0 0 0 0 0 0 0 0 0 0 0 0 0 0
-0.14592165720185823 -10.12643314978695 -5.755323079813846 0.3537939031782057 -88.98914991789862 179.65238862865513 6.6348190267873175 -39.46129036768313 33.57753185054974 -5.6556587744295355 62.034685733579046 7.842660166170762 -19.70774033892527 54.670002655789325 3.5435862540377876 0 0 0 -6.6694124101682695 -39.479455166978475 -33.56305277055893 5.632851217635751 62.033775418388586 -7.896987820214085 19.73385416558585 54.65253186746804 -3.5610090512673307 0 0 0 -0.21396846706040382 1.048144798448743 -0.043805187918652976 -1.18520535155021 -4.234772555524497 -0.02415840716514103 0 0 0 16.269396893153132 10.012499032044259 -17.02374458394142 -78.36751515206537 0.31223774699745976 -1.9667438181404897 -41.1983878597761 -17.515313508637043 -5.482012088357499 -20.747605416399455 -46.33788723288668 -23.35546278528432 0 0 0 0 0 0 0 0 0 0 0 0 0 0 0 0 0 0 0 0 0 0 0 0 0 0 0 0 0 0 0 0 0 0 0 0 0 0 0 0 0 0 0 0 0 0 45.52594238601336 0 0 -41.552063510802526 0 0 0 0 0 0 0 0 0 0 -16.11950091739347 9.54834683057772 17.085459909864706 78.18778691138294 0.3563760089263235 1.954546755315068 41.09082013491608 -17.541441509341414 5.412054520676905 19.802048634013552 -46.02239690262192 24.537787806229865 0 0 0 0 0 0 0 0 0 0 0 0 0 0 0 0 0 0 0 0 0 0 0 0 0 0 0 0 0 0 0 0 0 0 0 0 0 0 0 0 0 0 0 0 0
-0.14592165720185823 -10.12643314978695 -5.755323079813846 0.3553360025213006 -88.99361211240762 179.65084583920716 6.6348190267873175 -39.46129036768313 33.57753185054974 -5.6556587744295355 62.034685733579046 7.842660166170762 -19.70774033892527 54.670002655789325 3.5435862540377876 0 0 0 -6.669414607468512 -39.479455166978475 -33.56305092712214 5.632851217635751 62.033775418388586 -7.896987820214085 19.733856943756404 54.65252596444965 -3.5610075783620716 0 0 0 -0.21396846706040382 1.048145225407006 -0.04380519125426341 -1.1845323901882374 -3.8123577391590073 -0.032910957174575234 0 0 0 16.514631316542687 9.745461711265884 -16.94159288879275 -78.36752671192849 0.312236946572781 -1.9667425382154444 -41.67555596238371 -17.560867596246354 -5.515469442393563 -20.801151398231596 -46.36346669845894 -23.0254146948468 0 0 0 0 0 0 0 0 0 0 0 0 0 0 0 0 0 0 0 0 0 0 0 0 0 0 0 0 0 0 0 0 0 0 0 0 0 0 0 0 0 0 0 0 0 0 45.52594238601336 0 0 -43.10280314866636 0 0 0 0 0 0 0 0 0 0 -16.372657714458597 9.290389359895459 17.00218212326373 78.18778691138294 0.3563760089263235 1.954546755315068 41.556764795497116 -17.585094473117383 5.444596157322191 19.880199212661232 -46.0622241850533 24.195701394259906 0 0 0 0 0 0 0 0 0 0 0 0 0 0 0 0 0 0 0 0 0 0 0 0 0 0 0 0 0 0 0 0 0 0 0 0 0 0 0 0 0 0 0 0 0
-0.14592165720185823 -10.12643314978695 -5.755323079813846 0.3553306892569245 -88.99361211240762 179.650851117948 6.6348190267873175 -39.46129036768313 33.57753185054974 -5.6556587744295355 62.034685733579046 7.842660166170762 -19.70774033892527 54.670002655789325 3.5435862540377876 0 0 0 -6.669409114217869 -39.47945074243626 -33.563050324431686 5.632851217635751 62.033775418388586 -7.896987820214085 19.7338513874152 54.65253186746804 -3.561010892398899 0 0 0 -0.21396846706040382 1.0481442647509145 -0.043805187918652976 -1.1833818361400836 -2.9670209202209574 -0.05039965375043911 0 0 0 17.0035810362868 9.210125626174825 -16.780884084484462 -78.36745135135072 0.31223918776188164 -1.9667519243323957 -42.630930809912606 -17.65282911219356 -5.581256677516464 -20.908986158159426 -46.41399783706408 -22.364564007078418 0 0 0 0 0 0 0 0 0 0 0 0 0 0 0 0 0 0 0 0 0 0 0 0 0 0 0 0 0 0 0 0 0 0 0 0 0 0 0 0 0 0 0 0 0 0 45.52594238601336 0 0 -46.23018394903962 0 0 0 0 0 0 0 0 0 0 -16.877518212307113 8.77317665977777 16.839201257694025 78.18775709903946 0.3563768627164853 1.9545499551653402 42.48964387703784 -17.673227767382237 5.508627020188832 20.037734431583406 -46.14091031487676 23.510358571248844 0 0 0 0 0 0 0 0 0 0 0 0 0 0 0 0 0 0 0 0 0 0 0 0 0 0 0 0 0 0 0 0 0 0 0 0 0 0 0 0 0 0 0 0 0
-0.14592165720185823 -10.12643314978695 -5.755323079813846 0.3553306892569245 -88.99361211240762 179.650851117948 6.6348190267873175 -39.46129036768313 33.57753185054974 -5.6556587744295355 62.034685733579046 7.842660166170762 -19.70774033892527 54.670002655789325 3.5435862540377876 0 0 0 -6.669411311518141 -39.479455166978475 -33.56304848099495 5.632851217635751 62.033775418388586 -7.896987820214085 19.7338513874152 54.65252596444965 -3.5610116288515234 0 0 0 -0.21396846706040382 1.0481442647509145 -0.043805187918652976 -1.182902636827436 -2.5441439828106223 -0.059137817311589944 0 0 0 17.247299760771693 8.941859510249177 -16.70232938250529 -78.36747781608076 0.31223886759201014 -1.9667482978781314 -43.10907826727317 -17.69923344989296 -5.613579057800759 -20.963269836039355 -46.438939026851514 -22.0337756795246 0 0 0 0 0 0 0 0 0 0 0 0 0 0 0 0 0 0 0 0 0 0 0 0 0 0 0 0 0 0 0 0 0 0 0 0 0 0 0 0 0 0 0 0 0 0 45.52594238601336 0 0 -47.804633216209005 0 0 0 0 0 0 0 0 0 0 -17.12921518517439 8.513949889228375 16.75949463066854 78.18777200521129 0.3563764358214043 1.95454824857853 42.95651911717481 -17.717692421499383 5.54010946097362 20.117111026497177 -46.1797826121472 23.167123672313497 0 0 0 0 0 0 0 0 0 0 0 0 0 0 0 0 0 0 0 0 0 0 0 0 0 0 0 0 0 0 0 0 0 0 0 0 0 0 0 0 0 0 0 0 0
-0.14592165720185823 -10.12643314978695 -5.755323079813846 0.3553306892569245 -88.99361211240762 179.650851117948 6.6348190267873175 -39.46129036768313 33.57753185054974 -5.6556587744295355 62.034685733579046 7.842660166170762 -19.70774033892527 54.670002655789325 3.5435862540377876 0 0 0 -6.669414058143453 -39.479455166978475 -33.563046637558145 5.632851217635751 62.033775418388586 -7.896987820214085 19.73385078333794 54.65252596444965 -3.5610116304332617 0 0 0 -0.21396846706040382 1.0481442647509145 -0.043805187918652976 -1.1824880931582458 -2.1212668484969464 -0.06786981782467005 0 0 0 17.490469384833368 8.673266648138975 -16.624989036360613 -78.36750428080938 0.3122385741029612 -1.966744884744692 -43.58732288951583 -17.745893612685972 -5.645502472014348 -21.017785216643556 -46.46366853104453 -21.70280072168608 0 0 0 0 0 0 0 0 0 0 0 0 0 0 0 0 0 0 0 0 0 0 0 0 0 0 0 0 0 0 0 0 0 0 0 0 0 0 0 0 0 0 0 0 0 0 45.52594238601336 0 0 -49.379077904116585 0 0 0 0 0 0 0 0 0 0 -17.380381315202744 8.254380085108668 16.680995291940068 78.18778691138294 0.3563760089263235 1.954546755315068 43.42348171064143 -17.76239940223792 5.571217793158947 20.196878333661267 -46.21832210115746 22.823569523840945 0 0 0 0 0 0 0 0 0 0 0 0 0 0 0 0 0 0 0 0 0 0 0 0 0 0 0 0 0 0 0 0 0 0 0 0 0 0 0 0 0 0 0 0 0
-0.14592165720185823 -10.12643314978695 -5.755323079813846 0.3553306892569245 -88.99361211240762 179.650851117948 6.6348190267873175 -39.46129036768313 33.57753185054974 -5.6556587744295355 62.034685733579046 7.842660166170762 -19.70774033892527 54.670002655789325 3.5435862540377876 0 0 0 -6.669414607468512 -39.479455166978475 -33.56305092712214 5.632848952870715 62.033775418388586 -7.896990525220854 19.73385754783436 54.65253186746804 -3.5610090496853264 0 0 0 -0.21396846706040382 1.0481442647509145 -0.043805187918652976 -1.1818537326111758 -1.2751904939708425 -0.08532505167196468 0 0 0 17.97533058017186 8.134967794241616 -16.47387336307675 -78.36754914304849 0.3122361728289249 -1.9667389117611402 -44.544595816408034 -17.840014627425692 -5.708178883456871 -21.127522366406478 -46.51247646149575 -21.04018854581267 0 0 0 0 0 0 0 0 0 0 0 0 0 0 0 0 0 0 0 0 0 0 0 0 0 0 0 0 0 0 0 0 0 0 0 0 0 0 0 0 0 0 0 0 0 0 45.52594726063765 0 0 -52.54490581052913 0 0 0 0 0 0 0 0 0 0 -17.881296904929318 7.73408682169059 16.527542069323797 78.18778691138294 0.35637502173144897 1.95454696863842 44.35813148786641 -17.85256808964765 5.632333260315252 20.357609175034224 -46.294390038201094 22.135372997676924 0 0 0 0 0 0 0 0 0 0 0 0 0 0 0 0 0 0 0 0 0 0 0 0 0 0 0 0 0 0 0 0 0 0 0 0 0 0 0 0 0 0 0 0 0
-0.14592165720185823 -10.12643314978695 -5.755323079813846 0.3553306892569245 -88.99361211240762 179.650851117948 6.634817966485287 -39.461285944295874 33.57753000790329 -5.6556587744295355 62.034685733579046 7.842660166170762 -19.70774033892527 54.670002655789325 3.5435858856461064 0 0 0 -6.669411860843206 -39.479455166978475 -33.56305277055893 5.632848952870715 62.033775418388586 -7.896989623551937 19.733852172423134 54.65252596444965 -3.5610119986595357 0 0 0 -0.21396846706040382 1.0481442647509145 -0.043805187918652976 -1.1816328369567421 -0.8520373645284068 -0.09404974170651718 0 0 0 18.21703509196633 7.865296300646348 -16.400105363235387 -78.36751180706344 0.3122372934234751 -1.9667436048196492 -45.02356064082598 -17.887463405293715 -5.738914813227034 -21.18274479384691 -46.53656424105084 -20.708563894458464 0 0 0 0 0 0 0 0 0 0 0 0 0 0 0 0 0 0 0 0 0 0 0 0 0 0 0 0 0 0 0 0 0 0 0 0 0 0 0 0 0 0 0 0 0 0 45.52594238601336 0 0 -54.13393014827571 0 0 0 0 0 0 0 0 0 0 -18.131046412468393 7.473396312330119 16.45259478371608 78.18777604715177 0.35637587552161065 1.9545484619018811 44.82576242673576 -17.89802485072815 5.662330852997858 20.438563772930912 -46.33193689928291 21.790762874112414 0 0 0 0 0 0 0 0 0 0 0 0 0 0 0 0 0 0 0 0 0 0 0 0 0 0 0 0 0 0 0 0 0 0 0 0 0 0 0 0 0 0 0 0 0
